<svg width="105" height="37" viewBox="0 0 105 37" fill="none" xmlns="http://www.w3.org/2000/svg">
<path d="M10.944 8.112C11.1787 8.112 11.264 8.16533 11.2 8.272C11.136 8.35733 11.04 8.4 10.912 8.4C10.6347 8.4 10.272 8.48533 9.824 8.656C9.39733 8.80533 8.97067 9.04 8.544 9.36C8.11733 9.65867 7.75467 10.0427 7.456 10.512C7.15733 10.9813 7.008 11.536 7.008 12.176C7.008 12.9653 7.2 13.6373 7.584 14.192C7.968 14.7467 8.55467 15.1733 9.344 15.472C10.1333 15.7493 11.1147 15.888 12.288 15.888C13.3333 15.888 14.4533 15.696 15.648 15.312C16.864 14.9067 18.0587 14.3733 19.232 13.712C20.4267 13.0293 21.5147 12.272 22.496 11.44C23.4773 10.608 24.256 9.75467 24.832 8.88C25.4293 7.984 25.728 7.13067 25.728 6.32C25.728 6.08533 25.6 5.85067 25.344 5.616C25.1093 5.38133 24.7787 5.264 24.352 5.264C23.392 5.264 22.5067 5.50933 21.696 6C20.8853 6.49067 20.1067 7.17333 19.36 8.048C18.6133 8.90133 17.856 9.89333 17.088 11.024C16.3413 12.1547 15.552 13.36 14.72 14.64C14.1867 15.4507 13.5573 16.304 12.832 17.2C12.128 18.0747 11.3173 18.9067 10.4 19.696C9.48267 20.464 8.448 21.0933 7.296 21.584C6.16533 22.0533 4.896 22.288 3.488 22.288C1.632 22.288 0.704 21.904 0.704 21.136C0.704 20.9013 0.938667 20.656 1.408 20.4C1.856 20.1227 2.53867 19.984 3.456 19.984C4.33067 19.984 5.09867 20.0907 5.76 20.304C6.42133 20.496 7.09333 20.72 7.776 20.976C8.48 21.232 9.30133 21.4667 10.24 21.68C11.1787 21.872 12.3627 21.968 13.792 21.968C14.432 21.968 15.136 21.872 15.904 21.68C16.672 21.4667 17.2373 21.1253 17.6 20.656C17.6853 20.5493 17.7707 20.5067 17.856 20.528C17.9413 20.5493 17.9307 20.6453 17.824 20.816C17.568 21.1787 17.088 21.5627 16.384 21.968C15.7013 22.352 14.8053 22.544 13.696 22.544C12.8427 22.544 11.9467 22.448 11.008 22.256C10.0693 22.064 9.14133 21.84 8.224 21.584C7.30667 21.3067 6.44267 21.072 5.632 20.88C4.82133 20.688 4.10667 20.592 3.488 20.592C2.74133 20.592 2.15467 20.656 1.728 20.784C1.28 20.8907 1.056 21.008 1.056 21.136C1.056 21.3707 1.29067 21.5733 1.76 21.744C2.208 21.8933 2.79467 21.968 3.52 21.968C4.672 21.968 5.696 21.7547 6.592 21.328C7.488 20.88 8.30933 20.2933 9.056 19.568C9.80267 18.8213 10.5067 17.9787 11.168 17.04C11.8507 16.1013 12.5333 15.1413 13.216 14.16C14.112 12.8373 14.9973 11.6213 15.872 10.512C16.7467 9.40267 17.6427 8.432 18.56 7.6C19.4773 6.768 20.4373 6.128 21.44 5.68C22.464 5.21067 23.5627 4.976 24.736 4.976C25.1627 4.976 25.568 5.09333 25.952 5.328C26.3573 5.56267 26.56 5.94667 26.56 6.48C26.56 7.248 26.24 8.08 25.6 8.976C24.9813 9.85067 24.1493 10.7147 23.104 11.568C22.08 12.4213 20.928 13.2 19.648 13.904C18.3893 14.608 17.12 15.1733 15.84 15.6C14.56 16.0053 13.3653 16.208 12.256 16.208C10.6987 16.208 9.472 16.016 8.576 15.632C7.68 15.248 7.04 14.768 6.656 14.192C6.29333 13.616 6.112 13.0507 6.112 12.496C6.112 11.792 6.336 11.1093 6.784 10.448C7.25333 9.76533 7.85067 9.21067 8.576 8.784C9.32267 8.336 10.112 8.112 10.944 8.112ZM26.786 13.84C27.8527 13.84 28.386 14.352 28.386 15.376C28.386 16.1653 28.2047 16.976 27.842 17.808C27.4793 18.6187 26.9887 19.3653 26.37 20.048C25.7513 20.7093 25.0793 21.2533 24.354 21.68C23.6287 22.0853 22.8927 22.288 22.146 22.288C21.57 22.288 21.09 22.1493 20.706 21.872C20.3007 21.5733 20.098 21.0933 20.098 20.432C20.098 19.8133 20.2793 19.1307 20.642 18.384C21.0047 17.616 21.4953 16.8907 22.114 16.208C22.754 15.5253 23.4687 14.96 24.258 14.512C25.0687 14.064 25.9113 13.84 26.786 13.84ZM27.138 14.288C26.7753 14.288 26.3487 14.448 25.858 14.768C25.3673 15.088 24.866 15.504 24.354 16.016C23.842 16.528 23.362 17.0827 22.914 17.68C22.4873 18.256 22.1353 18.8213 21.858 19.376C21.602 19.9307 21.474 20.4 21.474 20.784C21.474 21.2107 21.5913 21.5093 21.826 21.68C22.0607 21.8293 22.3273 21.904 22.626 21.904C23.1167 21.904 23.6713 21.7013 24.29 21.296C24.9087 20.8693 25.506 20.336 26.082 19.696C26.658 19.056 27.1273 18.384 27.49 17.68C27.874 16.9547 28.066 16.2933 28.066 15.696C28.066 15.1413 27.97 14.768 27.778 14.576C27.586 14.384 27.3727 14.288 27.138 14.288ZM27.714 17.584C27.8207 17.584 27.8633 17.6267 27.842 17.712C27.842 17.776 27.7887 17.808 27.682 17.808C27.5967 17.808 27.4687 17.9253 27.298 18.16C27.1487 18.3733 27.01 18.5973 26.882 18.832C26.754 19.0667 26.69 19.1947 26.69 19.216C26.69 19.7067 26.8713 19.952 27.234 19.952C27.5753 19.952 27.9593 19.792 28.386 19.472C28.834 19.152 29.2607 18.7893 29.666 18.384C30.0927 17.9573 30.434 17.584 30.69 17.264L30.946 17.488C30.6687 17.808 30.3167 18.192 29.89 18.64C29.4633 19.0667 29.0153 19.4507 28.546 19.792C28.0767 20.112 27.6393 20.272 27.234 20.272C26.8927 20.272 26.658 20.1973 26.53 20.048C26.402 19.8987 26.338 19.632 26.338 19.248C26.338 18.736 26.5087 18.3307 26.85 18.032C27.2127 17.7333 27.5007 17.584 27.714 17.584ZM40.8963 2.608C41.1309 2.65067 41.4189 2.672 41.7603 2.672C42.1229 2.672 42.4109 2.65067 42.6243 2.608L31.4883 18.128C31.1469 18.64 30.8163 19.12 30.4962 19.568C30.1762 20.016 29.9202 20.4107 29.7282 20.752C29.5149 21.072 29.4082 21.328 29.4082 21.52C29.4082 21.6693 29.4722 21.776 29.6003 21.84C29.7069 21.904 29.8669 21.936 30.0802 21.936C30.5709 21.936 31.1149 21.7653 31.7122 21.424C32.3096 21.0613 32.8963 20.6133 33.4723 20.08C34.0696 19.5467 34.6136 19.024 35.1043 18.512C35.6163 18 36.0216 17.584 36.3203 17.264L36.5443 17.456C36.2669 17.7547 35.8829 18.1707 35.3923 18.704C34.9016 19.2373 34.3363 19.7813 33.6963 20.336C33.0776 20.8693 32.4269 21.328 31.7443 21.712C31.0829 22.096 30.4322 22.288 29.7922 22.288C29.4509 22.288 29.1629 22.192 28.9282 22C28.6722 21.808 28.5443 21.5307 28.5443 21.168C28.5443 20.9333 28.6296 20.6347 28.8002 20.272C28.9709 19.9093 29.1842 19.536 29.4402 19.152C29.6749 18.7467 29.9096 18.384 30.1442 18.064C30.3576 17.7227 30.5282 17.4667 30.6562 17.296L40.8963 2.608ZM35.6412 22.288C35.3426 22.288 35.0119 22.2027 34.6492 22.032C34.2652 21.8827 34.0732 21.6267 34.0732 21.264C34.0732 20.816 34.2759 20.2507 34.6812 19.568C35.0866 18.8853 35.5879 18.1813 36.1852 17.456C36.7613 16.7307 37.3266 16.048 37.8813 15.408C38.4359 14.768 38.8519 14.2667 39.1293 13.904C39.3639 13.9253 39.6413 13.936 39.9613 13.936C40.3026 13.936 40.6013 13.9253 40.8573 13.904C40.5586 14.2667 40.1639 14.7253 39.6733 15.28C39.2039 15.8347 38.7026 16.432 38.1693 17.072C37.6573 17.6907 37.1559 18.2987 36.6653 18.896C36.1959 19.4933 35.8119 20.0267 35.5132 20.496C35.2146 20.9653 35.0652 21.3067 35.0652 21.52C35.0652 21.6693 35.1292 21.776 35.2572 21.84C35.3852 21.904 35.5986 21.936 35.8972 21.936C36.4093 21.936 36.9746 21.744 37.5933 21.36C38.2333 20.9547 38.8519 20.4747 39.4493 19.92C40.0466 19.3653 40.5799 18.8427 41.0493 18.352C41.5186 17.84 41.8493 17.4667 42.0413 17.232L42.2973 17.456C42.1053 17.6693 41.7746 18.0427 41.3053 18.576C40.8573 19.088 40.3133 19.632 39.6733 20.208C39.0546 20.784 38.3933 21.2747 37.6893 21.68C37.0066 22.0853 36.3239 22.288 35.6412 22.288ZM42.0413 11.472C41.7853 11.472 41.5933 11.3973 41.4653 11.248C41.3373 11.0773 41.2733 10.8853 41.2733 10.672C41.2733 10.4373 41.4013 10.192 41.6573 9.936C41.9133 9.68 42.1799 9.552 42.4573 9.552C42.7559 9.552 42.9693 9.63733 43.0973 9.808C43.2253 9.95733 43.2893 10.1067 43.2893 10.256C43.2893 10.576 43.1613 10.864 42.9053 11.12C42.6493 11.3547 42.3613 11.472 42.0413 11.472ZM48.432 8.176C48.624 8.26133 48.9013 8.304 49.264 8.304C49.648 8.28267 49.9467 8.25067 50.16 8.208C49.4773 9.14667 48.72 10.1813 47.888 11.312C47.056 12.4427 46.2133 13.5733 45.36 14.704C44.528 15.8133 43.7493 16.8587 43.024 17.84C42.32 18.8 41.7547 19.6107 41.328 20.272C40.9013 20.9333 40.688 21.3493 40.688 21.52C40.688 21.648 40.7627 21.744 40.912 21.808C41.04 21.872 41.2107 21.904 41.424 21.904C41.8933 21.904 42.4053 21.744 42.96 21.424C43.536 21.0827 44.1013 20.6667 44.656 20.176C45.232 19.664 45.7547 19.152 46.224 18.64C46.7147 18.1067 47.0987 17.648 47.376 17.264L47.632 17.456C47.3333 17.84 46.9387 18.2987 46.448 18.832C45.9573 19.3653 45.4133 19.8987 44.816 20.432C44.2187 20.9653 43.6 21.4133 42.96 21.776C42.3413 22.1173 41.744 22.288 41.168 22.288C40.7627 22.288 40.4427 22.2027 40.208 22.032C39.952 21.8827 39.824 21.616 39.824 21.232C39.824 20.8907 40.0267 20.368 40.432 19.664C40.8373 18.9387 41.36 18.1067 42 17.168C42.6613 16.2293 43.376 15.2373 44.144 14.192C44.912 13.1253 45.6693 12.08 46.416 11.056C47.184 10.0107 47.856 9.05067 48.432 8.176ZM44.912 11.76C44.6987 11.76 44.592 11.696 44.592 11.568C44.592 11.4613 44.6987 11.408 44.912 11.408H50.992C51.056 11.408 51.12 11.4187 51.184 11.44C51.2693 11.4613 51.312 11.504 51.312 11.568C51.312 11.6533 51.2693 11.7067 51.184 11.728C51.12 11.7493 51.056 11.76 50.992 11.76H44.912ZM54.2885 16.4C54.2032 16.5707 54.0752 16.72 53.9045 16.848C53.7552 16.976 53.6378 17.0613 53.5525 17.104C53.4885 17.1253 53.5098 17.0613 53.6165 16.912C54.0005 16.4427 54.2458 16.0053 54.3525 15.6C54.4805 15.1947 54.4805 14.8747 54.3525 14.64C54.2458 14.384 54.0325 14.256 53.7125 14.256C53.2858 14.256 52.7845 14.4267 52.2085 14.768C51.6325 15.1093 51.0352 15.5573 50.4165 16.112C49.8192 16.6667 49.2538 17.264 48.7205 17.904C48.2085 18.5227 47.7925 19.1307 47.4725 19.728C47.1525 20.304 46.9925 20.8053 46.9925 21.232C46.9925 21.552 47.0565 21.7547 47.1845 21.84C47.3125 21.9253 47.4405 21.968 47.5685 21.968C48.0592 21.968 48.6245 21.744 49.2645 21.296C49.9258 20.8267 50.5978 20.24 51.2805 19.536C51.9632 18.832 52.6138 18.1173 53.2325 17.392C53.8512 16.6453 54.3845 15.9733 54.8325 15.376C55.3018 14.7787 55.6218 14.3733 55.7925 14.16C56.0272 14.2453 56.3045 14.2773 56.6245 14.256C56.9658 14.2347 57.2538 14.2133 57.4885 14.192C57.4458 14.256 57.2218 14.5227 56.8165 14.992C56.4325 15.4613 55.9632 16.0267 55.4085 16.688C54.8752 17.328 54.3312 17.9893 53.7765 18.672C53.2432 19.3547 52.7952 19.952 52.4325 20.464C52.0698 20.976 51.8885 21.3173 51.8885 21.488C51.8885 21.7013 51.9312 21.84 52.0165 21.904C52.1232 21.9467 52.2832 21.968 52.4965 21.968C52.7525 21.9467 53.1258 21.8293 53.6165 21.616C54.1072 21.3813 54.7365 20.9333 55.5045 20.272C56.2725 19.6107 57.2005 18.6293 58.2885 17.328C58.2885 17.328 58.3312 17.36 58.4165 17.424C58.5232 17.488 58.5765 17.52 58.5765 17.52C57.2965 19.0133 56.1125 20.1867 55.0245 21.04C53.9365 21.872 52.9445 22.288 52.0485 22.288C51.5792 22.288 51.2592 22.2133 51.0885 22.064C50.9392 21.9147 50.8645 21.7013 50.8645 21.424C50.8645 21.2107 50.9498 20.9547 51.1205 20.656C51.3125 20.336 51.5258 20.0267 51.7605 19.728C51.9952 19.4293 52.1872 19.1947 52.3365 19.024C52.3365 19.024 52.3152 19.0133 52.2725 18.992C52.2298 18.9707 52.2085 18.96 52.2085 18.96C51.7178 19.5573 51.1952 20.112 50.6405 20.624C50.0858 21.136 49.5312 21.5413 48.9765 21.84C48.4432 22.1387 47.9205 22.288 47.4085 22.288C46.8752 22.288 46.5018 22.16 46.2885 21.904C46.0752 21.6267 45.9685 21.2107 45.9685 20.656C45.9685 20.1227 46.1392 19.4827 46.4805 18.736C46.8218 17.968 47.3125 17.2213 47.9525 16.496C48.5925 15.7493 49.3605 15.1307 50.2565 14.64C51.1738 14.1493 52.1978 13.904 53.3285 13.904C53.8832 13.904 54.2672 14.0107 54.4805 14.224C54.6938 14.416 54.7898 14.6507 54.7685 14.928C54.7472 15.2053 54.6832 15.4827 54.5765 15.76C54.4698 16.0373 54.3738 16.2507 54.2885 16.4Z" fill="white"/>
<path d="M21.47 27.57V27.39C21.47 27.3167 21.4867 27.26 21.52 27.22C21.5533 27.1733 21.58 27.1467 21.6 27.14C21.66 27.12 21.71 27.11 21.75 27.11H22.18V26.74C22.18 26.1467 22.3067 25.6867 22.56 25.36C22.82 25.0333 23.1833 24.87 23.65 24.87C23.8833 24.8633 24.08 24.9067 24.24 25C24.4 25.0867 24.48 25.2133 24.48 25.38C24.48 25.54 24.4367 25.66 24.35 25.74C24.2633 25.82 24.15 25.86 24.01 25.86C24.0033 25.6933 23.95 25.5633 23.85 25.47C23.7567 25.3767 23.62 25.33 23.44 25.33C23.06 25.33 22.87 25.7233 22.87 26.51V27.11H24.1C24.1267 27.4167 24.03 27.57 23.81 27.57H22.87V31.53L23.85 31.59V31.76C23.85 31.84 23.8333 31.89 23.8 31.91C23.7333 31.97 23.66 32 23.58 32H21.45V31.92C21.45 31.76 21.4967 31.66 21.59 31.62C21.6367 31.5933 21.6933 31.5767 21.76 31.57L22.18 31.55V27.57H21.47ZM26.1129 27.77C26.3129 27.5567 26.5596 27.37 26.8529 27.21C27.1529 27.0433 27.3962 26.96 27.5829 26.96C27.7762 26.96 27.9329 27.0067 28.0529 27.1C28.1729 27.1867 28.2329 27.3267 28.2329 27.52C28.2329 27.8667 28.1762 28.1033 28.0629 28.23C27.9762 28.3033 27.8396 28.3333 27.6529 28.32C27.6529 27.84 27.5262 27.6 27.2729 27.6C26.9529 27.6 26.5662 27.8267 26.1129 28.28V31.53L26.9729 31.59C26.9996 31.8633 26.9062 32 26.6929 32H24.6929V31.92C24.6929 31.76 24.7396 31.66 24.8329 31.62C24.8796 31.5933 24.9362 31.5767 25.0029 31.57L25.4229 31.55V27.64L24.8829 27.58C24.7362 27.5667 24.6629 27.43 24.6629 27.17L26.0129 27L26.0829 27.77H26.1129ZM30.8254 27.48C30.3721 27.48 30.0221 27.6767 29.7754 28.07C29.5287 28.4633 29.4054 28.9667 29.4054 29.58C29.4054 30.1867 29.5254 30.6833 29.7654 31.07C30.0054 31.45 30.3521 31.64 30.8054 31.64C31.2587 31.6333 31.6087 31.44 31.8554 31.06C32.1021 30.68 32.2254 30.19 32.2254 29.59C32.2254 28.9833 32.1054 28.48 31.8654 28.08C31.6321 27.6733 31.2854 27.4733 30.8254 27.48ZM30.8854 26.96C31.3921 26.96 31.8487 27.12 32.2554 27.44C32.4687 27.6133 32.6387 27.8667 32.7654 28.2C32.8987 28.5333 32.9654 28.9333 32.9654 29.4C32.9787 30.2267 32.7854 30.8933 32.3854 31.4C31.9854 31.9 31.4454 32.15 30.7654 32.15C30.0854 32.15 29.5687 31.9367 29.2154 31.51C28.8621 31.0833 28.6787 30.4667 28.6654 29.66C28.6587 28.8533 28.8554 28.2033 29.2554 27.71C29.6621 27.21 30.2054 26.96 30.8854 26.96ZM38.9635 32H37.1035V31.92C37.1035 31.76 37.1502 31.66 37.2435 31.62C37.2902 31.5933 37.3468 31.5767 37.4135 31.57L37.8535 31.55V28.96C37.8535 28.0267 37.4835 27.56 36.7435 27.56C36.4702 27.56 36.2235 27.6133 36.0035 27.72C35.7835 27.8267 35.5335 27.9967 35.2535 28.23V31.53L35.9635 31.59C35.9902 31.8633 35.9002 32 35.6935 32H33.8135V31.92C33.8135 31.7067 33.9202 31.59 34.1335 31.57L34.5635 31.55V27.61L34.0435 27.55C33.8835 27.5367 33.8035 27.4 33.8035 27.14L35.0935 26.97L35.2235 27.73H35.2535C35.7935 27.2167 36.3502 26.96 36.9235 26.96C37.3702 26.96 37.7502 27.1167 38.0635 27.43C38.3835 27.7433 38.5435 28.2267 38.5435 28.88V31.53L39.2435 31.59C39.2702 31.8633 39.1768 32 38.9635 32ZM41.1163 27.57V30.51C41.1163 30.8833 41.1563 31.1533 41.2363 31.32C41.323 31.4867 41.483 31.57 41.7163 31.57C41.9563 31.57 42.1563 31.5433 42.3163 31.49C42.4763 31.4367 42.673 31.3167 42.9063 31.13C43.0263 31.1633 43.0863 31.2633 43.0863 31.43C43.0863 31.5967 42.923 31.76 42.5963 31.92C42.2763 32.08 41.9663 32.16 41.6663 32.16C41.1997 32.16 40.8763 32.0267 40.6963 31.76C40.5163 31.4933 40.4263 31.1067 40.4263 30.6V27.57H39.6963C39.6763 27.2633 39.773 27.11 39.9863 27.11H40.4263V25.92L41.1163 25.75V27.11H42.9863C43.0063 27.33 42.9563 27.4833 42.8363 27.57H41.1163ZM47.5266 29.37H44.3866C44.3799 29.4367 44.3766 29.54 44.3766 29.68C44.3766 30.2467 44.4966 30.7067 44.7366 31.06C44.9766 31.4067 45.3499 31.58 45.8566 31.58C46.3632 31.58 46.8466 31.4 47.3066 31.04C47.3866 31.1067 47.4266 31.19 47.4266 31.29C47.4266 31.4767 47.2432 31.6667 46.8766 31.86C46.5166 32.0533 46.1099 32.15 45.6566 32.15C45.0366 32.15 44.5399 31.9467 44.1666 31.54C43.7999 31.1333 43.6166 30.5133 43.6166 29.68C43.6166 28.8467 43.8366 28.1867 44.2766 27.7C44.7166 27.2067 45.2366 26.96 45.8366 26.96C46.4366 26.96 46.8699 27.15 47.1366 27.53C47.4032 27.91 47.5332 28.3633 47.5266 28.89V29.37ZM46.7966 28.92C46.7966 28.4733 46.7099 28.12 46.5366 27.86C46.3632 27.5933 46.1099 27.46 45.7766 27.46C45.4499 27.46 45.1699 27.59 44.9366 27.85C44.7032 28.11 44.5399 28.4667 44.4466 28.92H46.7966ZM53.4459 32H51.5859V31.92C51.5859 31.76 51.6326 31.66 51.7259 31.62C51.7726 31.5933 51.8293 31.5767 51.8959 31.57L52.3359 31.55V28.96C52.3359 28.0267 51.9659 27.56 51.2259 27.56C50.9526 27.56 50.7059 27.6133 50.4859 27.72C50.2659 27.8267 50.0159 27.9967 49.7359 28.23V31.53L50.4459 31.59C50.4726 31.8633 50.3826 32 50.1759 32H48.2959V31.92C48.2959 31.7067 48.4026 31.59 48.6159 31.57L49.0459 31.55V27.61L48.5259 27.55C48.3659 27.5367 48.2859 27.4 48.2859 27.14L49.5759 26.97L49.7059 27.73H49.7359C50.2759 27.2167 50.8326 26.96 51.4059 26.96C51.8526 26.96 52.2326 27.1167 52.5459 27.43C52.8659 27.7433 53.0259 28.2267 53.0259 28.88V31.53L53.7259 31.59C53.7526 31.8633 53.6593 32 53.4459 32ZM58.6188 32.15C58.1788 32.15 57.9421 31.9067 57.9088 31.42C57.4221 31.9067 56.8988 32.15 56.3388 32.15C55.7788 32.15 55.3121 31.9467 54.9388 31.54C54.5721 31.1267 54.3788 30.5133 54.3588 29.7C54.3388 28.88 54.5388 28.22 54.9588 27.72C55.3854 27.2133 55.9788 26.96 56.7388 26.96C57.1454 26.96 57.5321 27.0467 57.8988 27.22V25.69L57.3788 25.63C57.2188 25.6167 57.1388 25.4733 57.1388 25.2L58.5888 25.02V31.6L59.2288 31.68C59.2154 31.9933 59.0121 32.15 58.6188 32.15ZM57.8988 27.99C57.5388 27.6633 57.1021 27.5 56.5888 27.5C56.0821 27.5 55.7054 27.6967 55.4588 28.09C55.2188 28.4767 55.0988 28.9633 55.0988 29.55C55.0988 30.1367 55.2188 30.62 55.4588 31C55.6988 31.3733 56.0654 31.56 56.5588 31.56C56.8054 31.56 57.0254 31.51 57.2188 31.41C57.4121 31.31 57.6388 31.15 57.8988 30.93V27.99ZM59.8882 29.21H62.8082V29.8H59.8882V29.21ZM67.9352 32.15C67.4952 32.15 67.2585 31.9067 67.2252 31.42C66.7385 31.9067 66.2152 32.15 65.6552 32.15C65.0952 32.15 64.6285 31.9467 64.2552 31.54C63.8885 31.1267 63.6952 30.5133 63.6752 29.7C63.6552 28.88 63.8552 28.22 64.2752 27.72C64.7018 27.2133 65.2952 26.96 66.0552 26.96C66.4618 26.96 66.8485 27.0467 67.2152 27.22V25.69L66.6952 25.63C66.5352 25.6167 66.4552 25.4733 66.4552 25.2L67.9052 25.02V31.6L68.5452 31.68C68.5318 31.9933 68.3285 32.15 67.9352 32.15ZM67.2152 27.99C66.8552 27.6633 66.4185 27.5 65.9052 27.5C65.3985 27.5 65.0218 27.6967 64.7752 28.09C64.5352 28.4767 64.4152 28.9633 64.4152 29.55C64.4152 30.1367 64.5352 30.62 64.7752 31C65.0152 31.3733 65.3818 31.56 65.8752 31.56C66.1218 31.56 66.3418 31.51 66.5352 31.41C66.7285 31.31 66.9552 31.15 67.2152 30.93V27.99ZM73.0246 29.37H69.8846C69.8779 29.4367 69.8746 29.54 69.8746 29.68C69.8746 30.2467 69.9946 30.7067 70.2346 31.06C70.4746 31.4067 70.8479 31.58 71.3546 31.58C71.8613 31.58 72.3446 31.4 72.8046 31.04C72.8846 31.1067 72.9246 31.19 72.9246 31.29C72.9246 31.4767 72.7413 31.6667 72.3746 31.86C72.0146 32.0533 71.6079 32.15 71.1546 32.15C70.5346 32.15 70.0379 31.9467 69.6646 31.54C69.2979 31.1333 69.1146 30.5133 69.1146 29.68C69.1146 28.8467 69.3346 28.1867 69.7746 27.7C70.2146 27.2067 70.7346 26.96 71.3346 26.96C71.9346 26.96 72.3679 27.15 72.6346 27.53C72.9013 27.91 73.0313 28.3633 73.0246 28.89V29.37ZM72.2946 28.92C72.2946 28.4733 72.2079 28.12 72.0346 27.86C71.8613 27.5933 71.6079 27.46 71.2746 27.46C70.9479 27.46 70.6679 27.59 70.4346 27.85C70.2013 28.11 70.0379 28.4667 69.9446 28.92H72.2946ZM76.784 27.11H78.074C78.0873 27.3767 77.9873 27.5167 77.774 27.53L77.714 27.54L75.914 32H75.444L73.764 27.58L73.374 27.52C73.354 27.2467 73.4407 27.11 73.634 27.11H75.234V27.18C75.234 27.2333 75.2273 27.2733 75.214 27.3C75.2073 27.32 75.194 27.35 75.174 27.39C75.1473 27.47 75.0607 27.5167 74.914 27.53L74.534 27.56L75.774 31.05L77.074 27.58L76.504 27.52C76.4773 27.2467 76.5707 27.11 76.784 27.11ZM82.4094 29.37H79.2694C79.2627 29.4367 79.2594 29.54 79.2594 29.68C79.2594 30.2467 79.3794 30.7067 79.6194 31.06C79.8594 31.4067 80.2327 31.58 80.7394 31.58C81.246 31.58 81.7294 31.4 82.1894 31.04C82.2694 31.1067 82.3094 31.19 82.3094 31.29C82.3094 31.4767 82.126 31.6667 81.7594 31.86C81.3994 32.0533 80.9927 32.15 80.5394 32.15C79.9194 32.15 79.4227 31.9467 79.0494 31.54C78.6827 31.1333 78.4994 30.5133 78.4994 29.68C78.4994 28.8467 78.7194 28.1867 79.1594 27.7C79.5994 27.2067 80.1194 26.96 80.7194 26.96C81.3194 26.96 81.7527 27.15 82.0194 27.53C82.286 27.91 82.416 28.3633 82.4094 28.89V29.37ZM81.6794 28.92C81.6794 28.4733 81.5927 28.12 81.4194 27.86C81.246 27.5933 80.9927 27.46 80.6594 27.46C80.3327 27.46 80.0527 27.59 79.8194 27.85C79.586 28.11 79.4227 28.4667 79.3294 28.92H81.6794ZM85.0588 32H83.1788V31.92C83.1788 31.7067 83.2854 31.59 83.4988 31.57L83.9288 31.55V25.68L83.4088 25.63C83.2488 25.61 83.1688 25.47 83.1688 25.21L84.6188 25.02V31.53L85.3288 31.59C85.3554 31.8633 85.2654 32 85.0588 32ZM88.1301 27.48C87.6767 27.48 87.3267 27.6767 87.0801 28.07C86.8334 28.4633 86.7101 28.9667 86.7101 29.58C86.7101 30.1867 86.8301 30.6833 87.0701 31.07C87.3101 31.45 87.6567 31.64 88.1101 31.64C88.5634 31.6333 88.9134 31.44 89.1601 31.06C89.4067 30.68 89.5301 30.19 89.5301 29.59C89.5301 28.9833 89.4101 28.48 89.1701 28.08C88.9367 27.6733 88.5901 27.4733 88.1301 27.48ZM88.1901 26.96C88.6967 26.96 89.1534 27.12 89.5601 27.44C89.7734 27.6133 89.9434 27.8667 90.0701 28.2C90.2034 28.5333 90.2701 28.9333 90.2701 29.4C90.2834 30.2267 90.0901 30.8933 89.6901 31.4C89.2901 31.9 88.7501 32.15 88.0701 32.15C87.3901 32.15 86.8734 31.9367 86.5201 31.51C86.1667 31.0833 85.9834 30.4667 85.9701 29.66C85.9634 28.8533 86.1601 28.2033 86.5601 27.71C86.9667 27.21 87.5101 26.96 88.1901 26.96ZM92.1982 27.7C92.7182 27.2067 93.2515 26.96 93.7982 26.96C94.3449 26.96 94.8015 27.1667 95.1682 27.58C95.5415 27.9867 95.7349 28.6 95.7482 29.42C95.7682 30.2333 95.5682 30.8933 95.1482 31.4C94.7282 31.9 94.1382 32.15 93.3782 32.15C92.9982 32.15 92.6115 32.0633 92.2182 31.89V33.67L92.9782 33.73C93.0049 34.0033 92.9115 34.14 92.6982 34.14H90.7982V34.06C90.7982 33.9 90.8449 33.8 90.9382 33.76C90.9915 33.74 91.1882 33.7167 91.5282 33.69V27.63L90.9982 27.57C90.8449 27.5567 90.7682 27.4267 90.7682 27.18L92.0582 27.01L92.1982 27.7ZM92.2182 31.12C92.5649 31.4467 92.9982 31.61 93.5182 31.61C94.0382 31.61 94.4149 31.4133 94.6482 31.02C94.8882 30.6267 95.0082 30.1367 95.0082 29.55C95.0082 28.9633 94.8882 28.4833 94.6482 28.11C94.4149 27.7367 94.0515 27.55 93.5582 27.55C93.3115 27.55 93.0915 27.6 92.8982 27.7C92.7049 27.8 92.4782 27.9567 92.2182 28.17V31.12ZM100.437 29.37H97.2967C97.2901 29.4367 97.2867 29.54 97.2867 29.68C97.2867 30.2467 97.4067 30.7067 97.6467 31.06C97.8867 31.4067 98.2601 31.58 98.7667 31.58C99.2734 31.58 99.7567 31.4 100.217 31.04C100.297 31.1067 100.337 31.19 100.337 31.29C100.337 31.4767 100.153 31.6667 99.7867 31.86C99.4267 32.0533 99.0201 32.15 98.5667 32.15C97.9467 32.15 97.4501 31.9467 97.0767 31.54C96.7101 31.1333 96.5267 30.5133 96.5267 29.68C96.5267 28.8467 96.7467 28.1867 97.1867 27.7C97.6267 27.2067 98.1467 26.96 98.7467 26.96C99.3467 26.96 99.7801 27.15 100.047 27.53C100.313 27.91 100.443 28.3633 100.437 28.89V29.37ZM99.7067 28.92C99.7067 28.4733 99.6201 28.12 99.4467 27.86C99.2734 27.5933 99.0201 27.46 98.6867 27.46C98.3601 27.46 98.0801 27.59 97.8467 27.85C97.6134 28.11 97.4501 28.4667 97.3567 28.92H99.7067ZM102.646 27.77C102.846 27.5567 103.093 27.37 103.386 27.21C103.686 27.0433 103.929 26.96 104.116 26.96C104.309 26.96 104.466 27.0067 104.586 27.1C104.706 27.1867 104.766 27.3267 104.766 27.52C104.766 27.8667 104.709 28.1033 104.596 28.23C104.509 28.3033 104.373 28.3333 104.186 28.32C104.186 27.84 104.059 27.6 103.806 27.6C103.486 27.6 103.099 27.8267 102.646 28.28V31.53L103.506 31.59C103.533 31.8633 103.439 32 103.226 32H101.226V31.92C101.226 31.76 101.273 31.66 101.366 31.62C101.413 31.5933 101.469 31.5767 101.536 31.57L101.956 31.55V27.64L101.416 27.58C101.269 27.5667 101.196 27.43 101.196 27.17L102.546 27L102.616 27.77H102.646Z" fill="white"/>
</svg>
