<svg width="162" height="45" viewBox="0 0 162 45" fill="none" xmlns="http://www.w3.org/2000/svg">
<path d="M13.68 9.64C13.9733 9.64 14.08 9.70667 14 9.84C13.92 9.94667 13.8 10 13.64 10C13.2933 10 12.84 10.1067 12.28 10.32C11.7467 10.5067 11.2133 10.8 10.68 11.2C10.1467 11.5733 9.69333 12.0533 9.32 12.64C8.94667 13.2267 8.76 13.92 8.76 14.72C8.76 15.7067 9 16.5467 9.48 17.24C9.96 17.9333 10.6933 18.4667 11.68 18.84C12.6667 19.1867 13.8933 19.36 15.36 19.36C16.6667 19.36 18.0667 19.12 19.56 18.64C21.08 18.1333 22.5733 17.4667 24.04 16.64C25.5333 15.7867 26.8933 14.84 28.12 13.8C29.3467 12.76 30.32 11.6933 31.04 10.6C31.7867 9.48 32.16 8.41333 32.16 7.4C32.16 7.10667 32 6.81333 31.68 6.52C31.3867 6.22667 30.9733 6.08 30.44 6.08C29.24 6.08 28.1333 6.38667 27.12 7C26.1067 7.61333 25.1333 8.46667 24.2 9.56C23.2667 10.6267 22.32 11.8667 21.36 13.28C20.4267 14.6933 19.44 16.2 18.4 17.8C17.7333 18.8133 16.9467 19.88 16.04 21C15.16 22.0933 14.1467 23.1333 13 24.12C11.8533 25.08 10.56 25.8667 9.12 26.48C7.70667 27.0667 6.12 27.36 4.36 27.36C2.04 27.36 0.88 26.88 0.88 25.92C0.88 25.6267 1.17333 25.32 1.76 25C2.32 24.6533 3.17333 24.48 4.32 24.48C5.41333 24.48 6.37333 24.6133 7.2 24.88C8.02667 25.12 8.86667 25.4 9.72 25.72C10.6 26.04 11.6267 26.3333 12.8 26.6C13.9733 26.84 15.4533 26.96 17.24 26.96C18.04 26.96 18.92 26.84 19.88 26.6C20.84 26.3333 21.5467 25.9067 22 25.32C22.1067 25.1867 22.2133 25.1333 22.32 25.16C22.4267 25.1867 22.4133 25.3067 22.28 25.52C21.96 25.9733 21.36 26.4533 20.48 26.96C19.6267 27.44 18.5067 27.68 17.12 27.68C16.0533 27.68 14.9333 27.56 13.76 27.32C12.5867 27.08 11.4267 26.8 10.28 26.48C9.13333 26.1333 8.05333 25.84 7.04 25.6C6.02667 25.36 5.13333 25.24 4.36 25.24C3.42667 25.24 2.69333 25.32 2.16 25.48C1.6 25.6133 1.32 25.76 1.32 25.92C1.32 26.2133 1.61333 26.4667 2.2 26.68C2.76 26.8667 3.49333 26.96 4.4 26.96C5.84 26.96 7.12 26.6933 8.24 26.16C9.36 25.6 10.3867 24.8667 11.32 23.96C12.2533 23.0267 13.1333 21.9733 13.96 20.8C14.8133 19.6267 15.6667 18.4267 16.52 17.2C17.64 15.5467 18.7467 14.0267 19.84 12.64C20.9333 11.2533 22.0533 10.04 23.2 9C24.3467 7.96 25.5467 7.16 26.8 6.6C28.08 6.01333 29.4533 5.72 30.92 5.72C31.4533 5.72 31.96 5.86667 32.44 6.16C32.9467 6.45333 33.2 6.93333 33.2 7.6C33.2 8.56 32.8 9.6 32 10.72C31.2267 11.8133 30.1867 12.8933 28.88 13.96C27.6 15.0267 26.16 16 24.56 16.88C22.9867 17.76 21.4 18.4667 19.8 19C18.2 19.5067 16.7067 19.76 15.32 19.76C13.3733 19.76 11.84 19.52 10.72 19.04C9.6 18.56 8.8 17.96 8.32 17.24C7.86667 16.52 7.64 15.8133 7.64 15.12C7.64 14.24 7.92 13.3867 8.48 12.56C9.06667 11.7067 9.81333 11.0133 10.72 10.48C11.6533 9.92 12.64 9.64 13.68 9.64ZM33.4825 16.8C34.8158 16.8 35.4825 17.44 35.4825 18.72C35.4825 19.7067 35.2558 20.72 34.8025 21.76C34.3492 22.7733 33.7358 23.7067 32.9625 24.56C32.1892 25.3867 31.3492 26.0667 30.4425 26.6C29.5358 27.1067 28.6158 27.36 27.6825 27.36C26.9625 27.36 26.3625 27.1867 25.8825 26.84C25.3758 26.4667 25.1225 25.8667 25.1225 25.04C25.1225 24.2667 25.3492 23.4133 25.8025 22.48C26.2558 21.52 26.8692 20.6133 27.6425 19.76C28.4425 18.9067 29.3358 18.2 30.3225 17.64C31.3358 17.08 32.3892 16.8 33.4825 16.8ZM33.9225 17.36C33.4692 17.36 32.9358 17.56 32.3225 17.96C31.7092 18.36 31.0825 18.88 30.4425 19.52C29.8025 20.16 29.2025 20.8533 28.6425 21.6C28.1092 22.32 27.6692 23.0267 27.3225 23.72C27.0025 24.4133 26.8425 25 26.8425 25.48C26.8425 26.0133 26.9892 26.3867 27.2825 26.6C27.5758 26.7867 27.9092 26.88 28.2825 26.88C28.8958 26.88 29.5892 26.6267 30.3625 26.12C31.1358 25.5867 31.8825 24.92 32.6025 24.12C33.3225 23.32 33.9092 22.48 34.3625 21.6C34.8425 20.6933 35.0825 19.8667 35.0825 19.12C35.0825 18.4267 34.9625 17.96 34.7225 17.72C34.4825 17.48 34.2158 17.36 33.9225 17.36ZM34.6425 21.48C34.7758 21.48 34.8292 21.5333 34.8025 21.64C34.8025 21.72 34.7358 21.76 34.6025 21.76C34.4958 21.76 34.3358 21.9067 34.1225 22.2C33.9358 22.4667 33.7625 22.7467 33.6025 23.04C33.4425 23.3333 33.3625 23.4933 33.3625 23.52C33.3625 24.1333 33.5892 24.44 34.0425 24.44C34.4692 24.44 34.9492 24.24 35.4825 23.84C36.0425 23.44 36.5758 22.9867 37.0825 22.48C37.6158 21.9467 38.0425 21.48 38.3625 21.08L38.6825 21.36C38.3358 21.76 37.8958 22.24 37.3625 22.8C36.8292 23.3333 36.2692 23.8133 35.6825 24.24C35.0958 24.64 34.5492 24.84 34.0425 24.84C33.6158 24.84 33.3225 24.7467 33.1625 24.56C33.0025 24.3733 32.9225 24.04 32.9225 23.56C32.9225 22.92 33.1358 22.4133 33.5625 22.04C34.0158 21.6667 34.3758 21.48 34.6425 21.48ZM51.1203 2.76C51.4136 2.81333 51.7736 2.84 52.2003 2.84C52.6536 2.84 53.0136 2.81333 53.2803 2.76L39.3603 22.16C38.9336 22.8 38.5203 23.4 38.1203 23.96C37.7203 24.52 37.4003 25.0133 37.1603 25.44C36.8936 25.84 36.7603 26.16 36.7603 26.4C36.7603 26.5867 36.8403 26.72 37.0003 26.8C37.1336 26.88 37.3336 26.92 37.6003 26.92C38.2136 26.92 38.8936 26.7067 39.6403 26.28C40.387 25.8267 41.1203 25.2667 41.8403 24.6C42.587 23.9333 43.267 23.28 43.8803 22.64C44.5203 22 45.027 21.48 45.4003 21.08L45.6803 21.32C45.3336 21.6933 44.8536 22.2133 44.2403 22.88C43.627 23.5467 42.9203 24.2267 42.1203 24.92C41.347 25.5867 40.5336 26.16 39.6803 26.64C38.8536 27.12 38.0403 27.36 37.2403 27.36C36.8136 27.36 36.4536 27.24 36.1603 27C35.8403 26.76 35.6803 26.4133 35.6803 25.96C35.6803 25.6667 35.787 25.2933 36.0003 24.84C36.2136 24.3867 36.4803 23.92 36.8003 23.44C37.0936 22.9333 37.387 22.48 37.6803 22.08C37.947 21.6533 38.1603 21.3333 38.3203 21.12L51.1203 2.76ZM44.5516 27.36C44.1782 27.36 43.7649 27.2533 43.3116 27.04C42.8316 26.8533 42.5916 26.5333 42.5916 26.08C42.5916 25.52 42.8449 24.8133 43.3516 23.96C43.8582 23.1067 44.4849 22.2267 45.2316 21.32C45.9516 20.4133 46.6582 19.56 47.3516 18.76C48.0449 17.96 48.5649 17.3333 48.9116 16.88C49.2049 16.9067 49.5516 16.92 49.9516 16.92C50.3782 16.92 50.7516 16.9067 51.0716 16.88C50.6982 17.3333 50.2049 17.9067 49.5916 18.6C49.0049 19.2933 48.3782 20.04 47.7116 20.84C47.0716 21.6133 46.4449 22.3733 45.8316 23.12C45.2449 23.8667 44.7649 24.5333 44.3916 25.12C44.0182 25.7067 43.8316 26.1333 43.8316 26.4C43.8316 26.5867 43.9116 26.72 44.0716 26.8C44.2316 26.88 44.4982 26.92 44.8716 26.92C45.5116 26.92 46.2182 26.68 46.9916 26.2C47.7916 25.6933 48.5649 25.0933 49.3116 24.4C50.0582 23.7067 50.7249 23.0533 51.3116 22.44C51.8982 21.8 52.3116 21.3333 52.5516 21.04L52.8716 21.32C52.6316 21.5867 52.2182 22.0533 51.6316 22.72C51.0716 23.36 50.3916 24.04 49.5916 24.76C48.8182 25.48 47.9916 26.0933 47.1116 26.6C46.2582 27.1067 45.4049 27.36 44.5516 27.36ZM52.5516 13.84C52.2316 13.84 51.9916 13.7467 51.8316 13.56C51.6716 13.3467 51.5916 13.1067 51.5916 12.84C51.5916 12.5467 51.7516 12.24 52.0716 11.92C52.3916 11.6 52.7249 11.44 53.0716 11.44C53.4449 11.44 53.7116 11.5467 53.8716 11.76C54.0316 11.9467 54.1116 12.1333 54.1116 12.32C54.1116 12.72 53.9516 13.08 53.6316 13.4C53.3116 13.6933 52.9516 13.84 52.5516 13.84ZM60.54 9.72C60.78 9.82667 61.1267 9.88 61.58 9.88C62.06 9.85333 62.4333 9.81333 62.7 9.76C61.8467 10.9333 60.9 12.2267 59.86 13.64C58.82 15.0533 57.7667 16.4667 56.7 17.88C55.66 19.2667 54.6867 20.5733 53.78 21.8C52.9 23 52.1933 24.0133 51.66 24.84C51.1267 25.6667 50.86 26.1867 50.86 26.4C50.86 26.56 50.9533 26.68 51.14 26.76C51.3 26.84 51.5133 26.88 51.78 26.88C52.3667 26.88 53.0067 26.68 53.7 26.28C54.42 25.8533 55.1267 25.3333 55.82 24.72C56.54 24.08 57.1933 23.44 57.78 22.8C58.3933 22.1333 58.8733 21.56 59.22 21.08L59.54 21.32C59.1667 21.8 58.6733 22.3733 58.06 23.04C57.4467 23.7067 56.7667 24.3733 56.02 25.04C55.2733 25.7067 54.5 26.2667 53.7 26.72C52.9267 27.1467 52.18 27.36 51.46 27.36C50.9533 27.36 50.5533 27.2533 50.26 27.04C49.94 26.8533 49.78 26.52 49.78 26.04C49.78 25.6133 50.0333 24.96 50.54 24.08C51.0467 23.1733 51.7 22.1333 52.5 20.96C53.3267 19.7867 54.22 18.5467 55.18 17.24C56.14 15.9067 57.0867 14.6 58.02 13.32C58.98 12.0133 59.82 10.8133 60.54 9.72ZM56.14 14.2C55.8733 14.2 55.74 14.12 55.74 13.96C55.74 13.8267 55.8733 13.76 56.14 13.76H63.74C63.82 13.76 63.9 13.7733 63.98 13.8C64.0867 13.8267 64.14 13.88 64.14 13.96C64.14 14.0667 64.0867 14.1333 63.98 14.16C63.9 14.1867 63.82 14.2 63.74 14.2H56.14ZM67.8606 20C67.754 20.2133 67.594 20.4 67.3806 20.56C67.194 20.72 67.0473 20.8267 66.9406 20.88C66.8606 20.9067 66.8873 20.8267 67.0206 20.64C67.5006 20.0533 67.8073 19.5067 67.9406 19C68.1006 18.4933 68.1006 18.0933 67.9406 17.8C67.8073 17.48 67.5406 17.32 67.1406 17.32C66.6073 17.32 65.9806 17.5333 65.2606 17.96C64.5406 18.3867 63.794 18.9467 63.0206 19.64C62.274 20.3333 61.5673 21.08 60.9006 21.88C60.2606 22.6533 59.7406 23.4133 59.3406 24.16C58.9406 24.88 58.7406 25.5067 58.7406 26.04C58.7406 26.44 58.8206 26.6933 58.9806 26.8C59.1406 26.9067 59.3006 26.96 59.4606 26.96C60.074 26.96 60.7806 26.68 61.5806 26.12C62.4073 25.5333 63.2473 24.8 64.1006 23.92C64.954 23.04 65.7673 22.1467 66.5406 21.24C67.314 20.3067 67.9806 19.4667 68.5406 18.72C69.1273 17.9733 69.5273 17.4667 69.7406 17.2C70.034 17.3067 70.3806 17.3467 70.7806 17.32C71.2073 17.2933 71.5673 17.2667 71.8606 17.24C71.8073 17.32 71.5273 17.6533 71.0206 18.24C70.5406 18.8267 69.954 19.5333 69.2606 20.36C68.594 21.16 67.914 21.9867 67.2206 22.84C66.554 23.6933 65.994 24.44 65.5406 25.08C65.0873 25.72 64.8606 26.1467 64.8606 26.36C64.8606 26.6267 64.914 26.8 65.0206 26.88C65.154 26.9333 65.354 26.96 65.6206 26.96C65.9406 26.9333 66.4073 26.7867 67.0206 26.52C67.634 26.2267 68.4206 25.6667 69.3806 24.84C70.3406 24.0133 71.5006 22.7867 72.8606 21.16C72.8606 21.16 72.914 21.2 73.0206 21.28C73.154 21.36 73.2206 21.4 73.2206 21.4C71.6206 23.2667 70.1406 24.7333 68.7806 25.8C67.4206 26.84 66.1806 27.36 65.0606 27.36C64.474 27.36 64.074 27.2667 63.8606 27.08C63.674 26.8933 63.5806 26.6267 63.5806 26.28C63.5806 26.0133 63.6873 25.6933 63.9006 25.32C64.1406 24.92 64.4073 24.5333 64.7006 24.16C64.994 23.7867 65.234 23.4933 65.4206 23.28C65.4206 23.28 65.394 23.2667 65.3406 23.24C65.2873 23.2133 65.2606 23.2 65.2606 23.2C64.6473 23.9467 63.994 24.64 63.3006 25.28C62.6073 25.92 61.914 26.4267 61.2206 26.8C60.554 27.1733 59.9006 27.36 59.2606 27.36C58.594 27.36 58.1273 27.2 57.8606 26.88C57.594 26.5333 57.4606 26.0133 57.4606 25.32C57.4606 24.6533 57.674 23.8533 58.1006 22.92C58.5273 21.96 59.1406 21.0267 59.9406 20.12C60.7406 19.1867 61.7006 18.4133 62.8206 17.8C63.9673 17.1867 65.2473 16.88 66.6606 16.88C67.354 16.88 67.834 17.0133 68.1006 17.28C68.3673 17.52 68.4873 17.8133 68.4606 18.16C68.434 18.5067 68.354 18.8533 68.2206 19.2C68.0873 19.5467 67.9673 19.8133 67.8606 20Z" fill="white"/>
<path d="M24.658 35.798V35.546C24.658 35.4433 24.6813 35.364 24.728 35.308C24.7747 35.2427 24.812 35.2053 24.84 35.196C24.924 35.168 24.994 35.154 25.05 35.154H25.652V34.636C25.652 33.8053 25.8293 33.1613 26.184 32.704C26.548 32.2467 27.0567 32.018 27.71 32.018C28.0367 32.0087 28.312 32.0693 28.536 32.2C28.76 32.3213 28.872 32.4987 28.872 32.732C28.872 32.956 28.8113 33.124 28.69 33.236C28.5687 33.348 28.41 33.404 28.214 33.404C28.2047 33.1707 28.13 32.9887 27.99 32.858C27.8593 32.7273 27.668 32.662 27.416 32.662C26.884 32.662 26.618 33.2127 26.618 34.314V35.154H28.34C28.3773 35.5833 28.242 35.798 27.934 35.798H26.618V41.342L27.99 41.426V41.664C27.99 41.776 27.9667 41.846 27.92 41.874C27.8267 41.958 27.724 42 27.612 42H24.63V41.888C24.63 41.664 24.6953 41.524 24.826 41.468C24.8913 41.4307 24.9707 41.4073 25.064 41.398L25.652 41.37V35.798H24.658ZM31.158 36.078C31.438 35.7793 31.7834 35.518 32.194 35.294C32.614 35.0607 32.9547 34.944 33.216 34.944C33.4867 34.944 33.706 35.0093 33.874 35.14C34.042 35.2613 34.126 35.4573 34.126 35.728C34.126 36.2133 34.0467 36.5447 33.888 36.722C33.7667 36.8247 33.5754 36.8667 33.314 36.848C33.314 36.176 33.1367 35.84 32.782 35.84C32.334 35.84 31.7927 36.1573 31.158 36.792V41.342L32.362 41.426C32.3994 41.8087 32.2687 42 31.97 42H29.17V41.888C29.17 41.664 29.2354 41.524 29.366 41.468C29.4314 41.4307 29.5107 41.4073 29.604 41.398L30.192 41.37V35.896L29.436 35.812C29.2307 35.7933 29.128 35.602 29.128 35.238L31.018 35L31.116 36.078H31.158ZM37.7555 35.672C37.1209 35.672 36.6309 35.9473 36.2855 36.498C35.9402 37.0487 35.7675 37.7533 35.7675 38.612C35.7675 39.4613 35.9355 40.1567 36.2715 40.698C36.6075 41.23 37.0929 41.496 37.7275 41.496C38.3622 41.4867 38.8522 41.216 39.1975 40.684C39.5429 40.152 39.7155 39.466 39.7155 38.626C39.7155 37.7767 39.5475 37.072 39.2115 36.512C38.8849 35.9427 38.3995 35.6627 37.7555 35.672ZM37.8395 34.944C38.5489 34.944 39.1882 35.168 39.7575 35.616C40.0562 35.8587 40.2942 36.2133 40.4715 36.68C40.6582 37.1467 40.7515 37.7067 40.7515 38.36C40.7702 39.5173 40.4995 40.4507 39.9395 41.16C39.3795 41.86 38.6235 42.21 37.6715 42.21C36.7195 42.21 35.9962 41.9113 35.5015 41.314C35.0069 40.7167 34.7502 39.8533 34.7315 38.724C34.7222 37.5947 34.9975 36.6847 35.5575 35.994C36.1269 35.294 36.8875 34.944 37.8395 34.944ZM49.1489 42H46.5449V41.888C46.5449 41.664 46.6103 41.524 46.7409 41.468C46.8063 41.4307 46.8856 41.4073 46.9789 41.398L47.5949 41.37V37.744C47.5949 36.4373 47.0769 35.784 46.0409 35.784C45.6583 35.784 45.3129 35.8587 45.0049 36.008C44.6969 36.1573 44.3469 36.3953 43.9549 36.722V41.342L44.9489 41.426C44.9863 41.8087 44.8603 42 44.5709 42H41.9389V41.888C41.9389 41.5893 42.0883 41.426 42.3869 41.398L42.9889 41.37V35.854L42.2609 35.77C42.0369 35.7513 41.9249 35.56 41.9249 35.196L43.7309 34.958L43.9129 36.022H43.9549C44.7109 35.3033 45.4903 34.944 46.2929 34.944C46.9183 34.944 47.4503 35.1633 47.8889 35.602C48.3369 36.0407 48.5609 36.7173 48.5609 37.632V41.342L49.5409 41.426C49.5783 41.8087 49.4476 42 49.1489 42ZM52.1629 35.798V39.914C52.1629 40.4367 52.2189 40.8147 52.3309 41.048C52.4522 41.2813 52.6762 41.398 53.0029 41.398C53.3389 41.398 53.6189 41.3607 53.8429 41.286C54.0669 41.2113 54.3422 41.0433 54.6689 40.782C54.8369 40.8287 54.9209 40.9687 54.9209 41.202C54.9209 41.4353 54.6922 41.664 54.2349 41.888C53.7869 42.112 53.3529 42.224 52.9329 42.224C52.2795 42.224 51.8269 42.0373 51.5749 41.664C51.3229 41.2907 51.1969 40.7493 51.1969 40.04V35.798H50.1749C50.1469 35.3687 50.2822 35.154 50.5809 35.154H51.1969V33.488L52.1629 33.25V35.154H54.7809C54.8089 35.462 54.7389 35.6767 54.5709 35.798H52.1629ZM61.1372 38.318H56.7412C56.7319 38.4113 56.7272 38.556 56.7272 38.752C56.7272 39.5453 56.8952 40.1893 57.2312 40.684C57.5672 41.1693 58.0899 41.412 58.7992 41.412C59.5085 41.412 60.1852 41.16 60.8292 40.656C60.9412 40.7493 60.9972 40.866 60.9972 41.006C60.9972 41.2673 60.7405 41.5333 60.2272 41.804C59.7232 42.0747 59.1539 42.21 58.5192 42.21C57.6512 42.21 56.9559 41.9253 56.4332 41.356C55.9199 40.7867 55.6632 39.9187 55.6632 38.752C55.6632 37.5853 55.9712 36.6613 56.5872 35.98C57.2032 35.2893 57.9312 34.944 58.7712 34.944C59.6112 34.944 60.2179 35.21 60.5912 35.742C60.9645 36.274 61.1465 36.9087 61.1372 37.646V38.318ZM60.1152 37.688C60.1152 37.0627 59.9939 36.568 59.7512 36.204C59.5085 35.8307 59.1539 35.644 58.6872 35.644C58.2299 35.644 57.8379 35.826 57.5112 36.19C57.1845 36.554 56.9559 37.0533 56.8252 37.688H60.1152ZM69.4243 42H66.8203V41.888C66.8203 41.664 66.8856 41.524 67.0163 41.468C67.0816 41.4307 67.161 41.4073 67.2543 41.398L67.8703 41.37V37.744C67.8703 36.4373 67.3523 35.784 66.3163 35.784C65.9336 35.784 65.5883 35.8587 65.2803 36.008C64.9723 36.1573 64.6223 36.3953 64.2303 36.722V41.342L65.2243 41.426C65.2616 41.8087 65.1356 42 64.8463 42H62.2143V41.888C62.2143 41.5893 62.3636 41.426 62.6623 41.398L63.2643 41.37V35.854L62.5363 35.77C62.3123 35.7513 62.2003 35.56 62.2003 35.196L64.0063 34.958L64.1883 36.022H64.2303C64.9863 35.3033 65.7656 34.944 66.5683 34.944C67.1936 34.944 67.7256 35.1633 68.1643 35.602C68.6123 36.0407 68.8363 36.7173 68.8363 37.632V41.342L69.8163 41.426C69.8536 41.8087 69.723 42 69.4243 42ZM76.6663 42.21C76.0503 42.21 75.7189 41.8693 75.6723 41.188C74.9909 41.8693 74.2583 42.21 73.4743 42.21C72.6903 42.21 72.0369 41.9253 71.5143 41.356C71.0009 40.7773 70.7303 39.9187 70.7023 38.78C70.6743 37.632 70.9543 36.708 71.5423 36.008C72.1396 35.2987 72.9703 34.944 74.0343 34.944C74.6036 34.944 75.1449 35.0653 75.6583 35.308V33.166L74.9303 33.082C74.7063 33.0633 74.5943 32.8627 74.5943 32.48L76.6243 32.228V41.44L77.5203 41.552C77.5016 41.9907 77.2169 42.21 76.6663 42.21ZM75.6583 36.386C75.1543 35.9287 74.5429 35.7 73.8243 35.7C73.1149 35.7 72.5876 35.9753 72.2423 36.526C71.9063 37.0673 71.7383 37.7487 71.7383 38.57C71.7383 39.3913 71.9063 40.068 72.2423 40.6C72.5783 41.1227 73.0916 41.384 73.7823 41.384C74.1276 41.384 74.4356 41.314 74.7063 41.174C74.9769 41.034 75.2943 40.81 75.6583 40.502V36.386ZM78.4435 38.094H82.5315V38.92H78.4435V38.094ZM89.7092 42.21C89.0932 42.21 88.7619 41.8693 88.7152 41.188C88.0339 41.8693 87.3012 42.21 86.5172 42.21C85.7332 42.21 85.0799 41.9253 84.5572 41.356C84.0439 40.7773 83.7732 39.9187 83.7452 38.78C83.7172 37.632 83.9972 36.708 84.5852 36.008C85.1826 35.2987 86.0132 34.944 87.0772 34.944C87.6466 34.944 88.1879 35.0653 88.7012 35.308V33.166L87.9732 33.082C87.7492 33.0633 87.6372 32.8627 87.6372 32.48L89.6672 32.228V41.44L90.5632 41.552C90.5446 41.9907 90.2599 42.21 89.7092 42.21ZM88.7012 36.386C88.1972 35.9287 87.5859 35.7 86.8672 35.7C86.1579 35.7 85.6306 35.9753 85.2852 36.526C84.9492 37.0673 84.7812 37.7487 84.7812 38.57C84.7812 39.3913 84.9492 40.068 85.2852 40.6C85.6212 41.1227 86.1346 41.384 86.8252 41.384C87.1706 41.384 87.4786 41.314 87.7492 41.174C88.0199 41.034 88.3372 40.81 88.7012 40.502V36.386ZM96.8345 38.318H92.4385C92.4291 38.4113 92.4245 38.556 92.4245 38.752C92.4245 39.5453 92.5925 40.1893 92.9285 40.684C93.2645 41.1693 93.7871 41.412 94.4965 41.412C95.2058 41.412 95.8825 41.16 96.5265 40.656C96.6385 40.7493 96.6945 40.866 96.6945 41.006C96.6945 41.2673 96.4378 41.5333 95.9245 41.804C95.4205 42.0747 94.8511 42.21 94.2165 42.21C93.3485 42.21 92.6531 41.9253 92.1305 41.356C91.6171 40.7867 91.3605 39.9187 91.3605 38.752C91.3605 37.5853 91.6685 36.6613 92.2845 35.98C92.9005 35.2893 93.6285 34.944 94.4685 34.944C95.3085 34.944 95.9151 35.21 96.2885 35.742C96.6618 36.274 96.8438 36.9087 96.8345 37.646V38.318ZM95.8125 37.688C95.8125 37.0627 95.6911 36.568 95.4485 36.204C95.2058 35.8307 94.8511 35.644 94.3845 35.644C93.9271 35.644 93.5351 35.826 93.2085 36.19C92.8818 36.554 92.6531 37.0533 92.5225 37.688H95.8125ZM102.098 35.154H103.904C103.922 35.5273 103.782 35.7233 103.484 35.742L103.4 35.756L100.88 42H100.222L97.8696 35.812L97.3236 35.728C97.2956 35.3453 97.4169 35.154 97.6876 35.154H99.9276V35.252C99.9276 35.3267 99.9182 35.3827 99.8996 35.42C99.8902 35.448 99.8716 35.49 99.8436 35.546C99.8062 35.658 99.6849 35.7233 99.4796 35.742L98.9476 35.784L100.684 40.67L102.504 35.812L101.706 35.728C101.668 35.3453 101.799 35.154 102.098 35.154ZM109.973 38.318H105.577C105.568 38.4113 105.563 38.556 105.563 38.752C105.563 39.5453 105.731 40.1893 106.067 40.684C106.403 41.1693 106.926 41.412 107.635 41.412C108.344 41.412 109.021 41.16 109.665 40.656C109.777 40.7493 109.833 40.866 109.833 41.006C109.833 41.2673 109.576 41.5333 109.063 41.804C108.559 42.0747 107.99 42.21 107.355 42.21C106.487 42.21 105.792 41.9253 105.269 41.356C104.756 40.7867 104.499 39.9187 104.499 38.752C104.499 37.5853 104.807 36.6613 105.423 35.98C106.039 35.2893 106.767 34.944 107.607 34.944C108.447 34.944 109.054 35.21 109.427 35.742C109.8 36.274 109.982 36.9087 109.973 37.646V38.318ZM108.951 37.688C108.951 37.0627 108.83 36.568 108.587 36.204C108.344 35.8307 107.99 35.644 107.523 35.644C107.066 35.644 106.674 35.826 106.347 36.19C106.02 36.554 105.792 37.0533 105.661 37.688H108.951ZM113.682 42H111.05V41.888C111.05 41.5893 111.2 41.426 111.498 41.398L112.1 41.37V33.152L111.372 33.082C111.148 33.054 111.036 32.858 111.036 32.494L113.066 32.228V41.342L114.06 41.426C114.098 41.8087 113.972 42 113.682 42ZM117.982 35.672C117.347 35.672 116.857 35.9473 116.512 36.498C116.167 37.0487 115.994 37.7533 115.994 38.612C115.994 39.4613 116.162 40.1567 116.498 40.698C116.834 41.23 117.319 41.496 117.954 41.496C118.589 41.4867 119.079 41.216 119.424 40.684C119.769 40.152 119.942 39.466 119.942 38.626C119.942 37.7767 119.774 37.072 119.438 36.512C119.111 35.9427 118.626 35.6627 117.982 35.672ZM118.066 34.944C118.775 34.944 119.415 35.168 119.984 35.616C120.283 35.8587 120.521 36.2133 120.698 36.68C120.885 37.1467 120.978 37.7067 120.978 38.36C120.997 39.5173 120.726 40.4507 120.166 41.16C119.606 41.86 118.85 42.21 117.898 42.21C116.946 42.21 116.223 41.9113 115.728 41.314C115.233 40.7167 114.977 39.8533 114.958 38.724C114.949 37.5947 115.224 36.6847 115.784 35.994C116.353 35.294 117.114 34.944 118.066 34.944ZM123.677 35.98C124.405 35.2893 125.152 34.944 125.917 34.944C126.683 34.944 127.322 35.2333 127.835 35.812C128.358 36.3813 128.629 37.24 128.647 38.388C128.675 39.5267 128.395 40.4507 127.807 41.16C127.219 41.86 126.393 42.21 125.329 42.21C124.797 42.21 124.256 42.0887 123.705 41.846V44.338L124.769 44.422C124.807 44.8047 124.676 44.996 124.377 44.996H121.717V44.884C121.717 44.66 121.783 44.52 121.913 44.464C121.988 44.436 122.263 44.4033 122.739 44.366V35.882L121.997 35.798C121.783 35.7793 121.675 35.5973 121.675 35.252L123.481 35.014L123.677 35.98ZM123.705 40.768C124.191 41.2253 124.797 41.454 125.525 41.454C126.253 41.454 126.781 41.1787 127.107 40.628C127.443 40.0773 127.611 39.3913 127.611 38.57C127.611 37.7487 127.443 37.0767 127.107 36.554C126.781 36.0313 126.272 35.77 125.581 35.77C125.236 35.77 124.928 35.84 124.657 35.98C124.387 36.12 124.069 36.3393 123.705 36.638V40.768ZM135.211 38.318H130.815C130.806 38.4113 130.801 38.556 130.801 38.752C130.801 39.5453 130.969 40.1893 131.305 40.684C131.641 41.1693 132.164 41.412 132.873 41.412C133.583 41.412 134.259 41.16 134.903 40.656C135.015 40.7493 135.071 40.866 135.071 41.006C135.071 41.2673 134.815 41.5333 134.301 41.804C133.797 42.0747 133.228 42.21 132.593 42.21C131.725 42.21 131.03 41.9253 130.507 41.356C129.994 40.7867 129.737 39.9187 129.737 38.752C129.737 37.5853 130.045 36.6613 130.661 35.98C131.277 35.2893 132.005 34.944 132.845 34.944C133.685 34.944 134.292 35.21 134.665 35.742C135.039 36.274 135.221 36.9087 135.211 37.646V38.318ZM134.189 37.688C134.189 37.0627 134.068 36.568 133.825 36.204C133.583 35.8307 133.228 35.644 132.761 35.644C132.304 35.644 131.912 35.826 131.585 36.19C131.259 36.554 131.03 37.0533 130.899 37.688H134.189ZM138.305 36.078C138.585 35.7793 138.93 35.518 139.341 35.294C139.761 35.0607 140.101 34.944 140.363 34.944C140.633 34.944 140.853 35.0093 141.021 35.14C141.189 35.2613 141.273 35.4573 141.273 35.728C141.273 36.2133 141.193 36.5447 141.035 36.722C140.913 36.8247 140.722 36.8667 140.461 36.848C140.461 36.176 140.283 35.84 139.929 35.84C139.481 35.84 138.939 36.1573 138.305 36.792V41.342L139.509 41.426C139.546 41.8087 139.415 42 139.117 42H136.317V41.888C136.317 41.664 136.382 41.524 136.513 41.468C136.578 41.4307 136.657 41.4073 136.751 41.398L137.339 41.37V35.896L136.583 35.812C136.377 35.7933 136.275 35.602 136.275 35.238L138.165 35L138.263 36.078H138.305Z" fill="white"/>
</svg>
